<?xml version="1.0" standalone="no"?>
<!DOCTYPE svg PUBLIC "-//W3C//DTD SVG 20010904//EN"
 "http://www.w3.org/TR/2001/REC-SVG-20010904/DTD/svg10.dtd">
<svg version="1.0" xmlns="http://www.w3.org/2000/svg"
 width="1024.000000pt" height="1024.000000pt" viewBox="0 0 1024.000000 1024.000000"
 preserveAspectRatio="xMidYMid meet">
<metadata>
Created by potrace 1.11, written by Peter Selinger 2001-2013
</metadata>
<g transform="translate(0.000000,1024.000000) scale(0.100000,-0.100000)"
fill="#000000" stroke="none">
<path d="M2549 10145 c-2 -1 -34 -6 -70 -9 -37 -3 -98 -10 -135 -17 -38 -6
-78 -12 -89 -14 -94 -13 -361 -93 -495 -149 -298 -125 -595 -321 -829 -549
-75 -74 -202 -212 -237 -258 -10 -14 -44 -59 -75 -100 -109 -145 -243 -378
-327 -569 -73 -164 -156 -441 -192 -636 -21 -110 -23 -127 -37 -264 -16 -149
-8 -682 12 -801 2 -13 6 -46 10 -74 10 -82 35 -234 51 -315 9 -41 17 -82 19
-91 12 -60 74 -276 112 -389 208 -615 593 -1224 1155 -1825 25 -27 63 -68 83
-90 157 -170 604 -608 915 -895 19 -18 91 -86 160 -150 69 -65 141 -132 160
-150 188 -174 378 -359 670 -650 305 -304 416 -421 615 -641 128 -142 298
-343 432 -509 122 -152 291 -378 404 -538 108 -154 98 -140 160 -235 56 -84
73 -99 104 -87 11 4 65 77 120 161 55 85 139 210 187 279 48 69 93 133 100
143 157 226 565 726 788 968 14 15 63 68 109 119 221 241 671 690 1056 1055
87 83 179 170 205 195 26 25 114 108 196 185 170 160 775 763 879 876 79 85
148 162 185 205 14 16 50 59 80 94 30 36 57 67 60 70 20 17 231 296 308 405
172 245 360 580 456 810 21 50 43 104 51 120 46 106 144 433 179 595 15 75 19
93 33 179 4 25 8 48 8 51 2 6 15 108 21 155 3 29 9 98 19 215 10 127 5 476 -9
575 -3 22 -8 65 -11 95 -3 30 -7 65 -9 76 -3 12 -7 38 -10 57 -17 105 -74 323
-120 457 -244 706 -762 1302 -1401 1610 -104 50 -277 121 -330 135 -16 5 -33
9 -37 10 -5 2 -9 3 -10 5 -2 1 -10 3 -18 6 -308 81 -440 99 -735 99 -212 -1
-306 -10 -490 -47 -214 -43 -401 -107 -605 -206 -120 -58 -339 -188 -360 -212
-3 -4 -26 -21 -53 -39 -97 -66 -256 -209 -386 -346 -153 -162 -338 -428 -432
-617 -31 -64 -49 -84 -49 -56 0 14 -95 184 -159 283 -158 248 -376 490 -601
670 -95 76 -263 195 -275 195 -3 0 -25 13 -48 28 -51 35 -310 162 -329 162 -8
0 -18 4 -23 9 -9 7 -151 60 -179 65 -6 2 -36 10 -67 20 -31 9 -65 18 -75 20
-11 3 -50 11 -89 20 -85 19 -116 24 -180 32 -27 3 -61 8 -75 11 -29 6 -446 14
-451 8z"/>
</g>
</svg>
